<svg width="87" height="12" viewBox="0 0 87 12" fill="none" xmlns="http://www.w3.org/2000/svg">
<path d="M10.5814 9.26146L10.5419 9.12981L10.4629 8.91915L10.4103 8.7875L10.2654 8.52418L10.068 8.27403L9.80464 8.03705L9.50183 7.76057L9.25168 7.52359L9.0147 7.26027L8.81721 6.99696L8.63289 6.72048L8.43541 6.35184L8.31692 6.10169L8.17209 5.82521L7.98777 5.5224L7.77712 5.24592L7.6323 5.10109L7.48747 4.96943L7.28999 4.82461L7.053 4.71929L6.75019 4.61396L6.44738 4.57446H6.1314L5.82859 4.61396L5.39412 4.77195L4.97282 5.0616L4.69634 5.33808L4.52518 5.60139L4.35403 5.9042L4.13021 6.365L3.91956 6.77314L3.68258 7.08912L3.39293 7.45776L2.53716 8.2477L2.45817 8.31353L2.26068 8.59001L2.10269 8.90599L2.01053 9.30096L1.95787 9.65643L1.9447 10.0514L1.9842 10.3147L2.10269 10.6834L2.27385 11.0257L2.45817 11.2627L2.69515 11.4996L3.01113 11.7103L3.37977 11.8814L3.65625 11.9473L4.07755 11.9604L4.48569 11.8683L4.73584 11.7498L4.84116 11.6708L5.07815 11.5391L5.30196 11.4075L5.49945 11.289L5.7101 11.1968L5.88126 11.1178L6.07874 11.0652L6.28939 11.052L6.53954 11.0915L6.72386 11.131L7.02667 11.2758L7.39531 11.4601L7.69813 11.6576L7.97461 11.8156L8.25109 11.9341L8.5144 11.9868L8.73822 11.9999L8.92254 11.9868L9.21218 11.9078L9.58082 11.7366L9.84414 11.5523L10.1206 11.2758L10.3181 11.0125L10.4893 10.657L10.5946 10.3147L10.6341 10.0251V9.72226L10.6209 9.55111L10.5814 9.26146Z" fill="#B5B0AD"/>
<path d="M9.52949 2.32088C9.64729 1.20727 9.10968 0.23754 8.32871 0.154927C7.54773 0.0723141 6.81913 0.908103 6.70133 2.02171C6.58353 3.13533 7.12114 4.10506 7.90212 4.18767C8.68309 4.27028 9.41169 3.43449 9.52949 2.32088Z" fill="#B5B0AD"/>
<path d="M4.67245 4.18223C5.45343 4.09962 5.99104 3.12989 5.87324 2.01627C5.75544 0.902664 5.02684 0.0668758 4.24586 0.149489C3.46489 0.232101 2.92728 1.20183 3.04508 2.31544C3.16288 3.42905 3.89148 4.26484 4.67245 4.18223Z" fill="#B5B0AD"/>
<path d="M12.139 5.62151C12.3809 4.5356 11.9556 3.5169 11.189 3.34618C10.4225 3.17546 9.60507 3.91736 9.36321 5.00327C9.12136 6.08918 9.54668 7.10788 10.3132 7.2786C11.0797 7.44933 11.8972 6.70742 12.139 5.62151Z" fill="#B5B0AD"/>
<path d="M2.26376 7.27809C3.03028 7.10737 3.45561 6.08866 3.21375 5.00276C2.97189 3.91685 2.15444 3.17494 1.38792 3.34566C0.621391 3.51639 0.196064 4.53509 0.437921 5.621C0.679778 6.70691 1.49723 7.44881 2.26376 7.27809Z" fill="#B5B0AD"/>
<path d="M29.1583 9.26146L29.1188 9.12981L29.0398 8.91915L28.9872 8.7875L28.8423 8.52418L28.6449 8.27403L28.3815 8.03705L28.0787 7.76057L27.8286 7.52359L27.5916 7.26027L27.3941 6.99696L27.2098 6.72048L27.0123 6.35184L26.8938 6.10169L26.749 5.82521L26.5647 5.5224L26.354 5.24592L26.2092 5.10109L26.0644 4.96943L25.8669 4.82461L25.6299 4.71929L25.3271 4.61396L25.0243 4.57446H24.7083L24.4055 4.61396L23.971 4.77195L23.5497 5.0616L23.2732 5.33808L23.1021 5.60139L22.9309 5.9042L22.7071 6.365L22.4965 6.77314L22.2595 7.08912L21.9698 7.45776L21.1141 8.2477L21.0351 8.31353L20.8376 8.59001L20.6796 8.90599L20.5874 9.30096L20.5348 9.65643L20.5216 10.0514L20.5611 10.3147L20.6796 10.6834L20.8507 11.0257L21.0351 11.2627L21.2721 11.4996L21.588 11.7103L21.9567 11.8814L22.2332 11.9473L22.6545 11.9604L23.0626 11.8683L23.3127 11.7498L23.4181 11.6708L23.655 11.5391L23.8789 11.4075L24.0764 11.289L24.287 11.1968L24.4582 11.1178L24.6556 11.0652L24.8663 11.052L25.1164 11.0915L25.3008 11.131L25.6036 11.2758L25.9722 11.4601L26.275 11.6576L26.5515 11.8156L26.828 11.9341L27.0913 11.9868L27.3151 11.9999L27.4994 11.9868L27.7891 11.9078L28.1577 11.7366L28.421 11.5523L28.6975 11.2758L28.895 11.0125L29.0662 10.657L29.1715 10.3147L29.211 10.0251V9.72226L29.1978 9.55111L29.1583 9.26146Z" fill="#B5B0AD"/>
<path d="M28.1064 2.32088C28.2242 1.20727 27.6866 0.23754 26.9056 0.154927C26.1246 0.0723141 25.396 0.908103 25.2782 2.02171C25.1604 3.13533 25.698 4.10506 26.479 4.18767C27.26 4.27028 27.9886 3.43449 28.1064 2.32088Z" fill="#B5B0AD"/>
<path d="M23.2494 4.18223C24.0303 4.09962 24.5679 3.12989 24.4501 2.01627C24.3323 0.902664 23.6037 0.0668758 22.8228 0.149489C22.0418 0.232101 21.5042 1.20183 21.622 2.31544C21.7398 3.42905 22.4684 4.26484 23.2494 4.18223Z" fill="#B5B0AD"/>
<path d="M30.7159 5.62151C30.9578 4.5356 30.5325 3.5169 29.766 3.34618C28.9994 3.17546 28.182 3.91736 27.9401 5.00327C27.6983 6.08918 28.1236 7.10788 28.8901 7.2786C29.6566 7.44933 30.4741 6.70742 30.7159 5.62151Z" fill="#B5B0AD"/>
<path d="M20.8407 7.27809C21.6072 7.10737 22.0325 6.08866 21.7907 5.00276C21.5488 3.91685 20.7313 3.17494 19.9648 3.34566C19.1983 3.51639 18.773 4.53509 19.0148 5.621C19.2567 6.70691 20.0741 7.44881 20.8407 7.27809Z" fill="#B5B0AD"/>
<path d="M47.7352 9.26146L47.6957 9.12981L47.6167 8.91915L47.5641 8.7875L47.4193 8.52418L47.2218 8.27403L46.9585 8.03705L46.6556 7.76057L46.4055 7.52359L46.1685 7.26027L45.971 6.99696L45.7867 6.72048L45.5892 6.35184L45.4707 6.10169L45.3259 5.82521L45.1416 5.5224L44.9309 5.24592L44.7861 5.10109L44.6413 4.96943L44.4438 4.82461L44.2068 4.71929L43.904 4.61396L43.6012 4.57446H43.2852L42.9824 4.61396L42.5479 4.77195L42.1266 5.0616L41.8501 5.33808L41.679 5.60139L41.5078 5.9042L41.284 6.365L41.0734 6.77314L40.8364 7.08912L40.5467 7.45776L39.691 8.2477L39.612 8.31353L39.4145 8.59001L39.2565 8.90599L39.1643 9.30096L39.1117 9.65643L39.0985 10.0514L39.138 10.3147L39.2565 10.6834L39.4277 11.0257L39.612 11.2627L39.849 11.4996L40.1649 11.7103L40.5336 11.8814L40.8101 11.9473L41.2314 11.9604L41.6395 11.8683L41.8896 11.7498L41.995 11.6708L42.232 11.5391L42.4558 11.4075L42.6533 11.289L42.8639 11.1968L43.0351 11.1178L43.2325 11.0652L43.4432 11.052L43.6934 11.0915L43.8777 11.131L44.1805 11.2758L44.5491 11.4601L44.8519 11.6576L45.1284 11.8156L45.4049 11.9341L45.6682 11.9868L45.892 11.9999L46.0763 11.9868L46.366 11.9078L46.7346 11.7366L46.9979 11.5523L47.2744 11.2758L47.4719 11.0125L47.6431 10.657L47.7484 10.3147L47.7879 10.0251V9.72226L47.7747 9.55111L47.7352 9.26146Z" fill="#B5B0AD"/>
<path d="M46.6833 2.32088C46.8011 1.20727 46.2635 0.23754 45.4825 0.154927C44.7015 0.0723141 43.9729 0.908103 43.8551 2.02171C43.7373 3.13533 44.275 4.10506 45.0559 4.18767C45.8369 4.27028 46.5655 3.43449 46.6833 2.32088Z" fill="#B5B0AD"/>
<path d="M41.8263 4.18223C42.6072 4.09962 43.1448 3.12989 43.027 2.01627C42.9092 0.902664 42.1806 0.0668758 41.3997 0.149489C40.6187 0.232101 40.0811 1.20183 40.1989 2.31544C40.3167 3.42905 41.0453 4.26484 41.8263 4.18223Z" fill="#B5B0AD"/>
<path d="M49.2929 5.62151C49.5347 4.5356 49.1094 3.5169 48.3429 3.34618C47.5763 3.17546 46.7589 3.91736 46.517 5.00327C46.2752 6.08918 46.7005 7.10788 47.467 7.2786C48.2335 7.44933 49.051 6.70742 49.2929 5.62151Z" fill="#B5B0AD"/>
<path d="M39.4176 7.27809C40.1841 7.10737 40.6094 6.08866 40.3676 5.00276C40.1257 3.91685 39.3082 3.17494 38.5417 3.34566C37.7752 3.51639 37.3499 4.53509 37.5917 5.621C37.8336 6.70691 38.651 7.44881 39.4176 7.27809Z" fill="#B5B0AD"/>
<path d="M65.3668 8.22167L65.3668 8.22168L65.3681 8.22287L65.6156 8.44563L65.7871 8.66283L65.9145 8.89456L65.9605 9.00946L66.0356 9.20971L66.0671 9.31459L66.1029 9.5776L66.1148 9.73187V10.0081L66.0803 10.2607L65.9866 10.5655L65.8342 10.882L65.662 11.1116L65.4136 11.36L65.1862 11.5192L64.8568 11.6721L64.6111 11.7391L64.4674 11.7494L64.2771 11.7382L64.0564 11.6941L63.8169 11.5915L63.5592 11.4442L63.2626 11.2507L63.2506 11.2429L63.2378 11.2365L62.8692 11.0522L62.8692 11.0522L62.8652 11.0503L62.5624 10.9055L62.5358 10.8927L62.507 10.8865L62.3226 10.847L62.3227 10.8467L62.3092 10.8446L62.0591 10.8051L62.0319 10.8008L62.0045 10.8025L61.7939 10.8157L61.7691 10.8172L61.745 10.8236L61.5476 10.8763L61.5268 10.8818L61.5072 10.8908L61.3383 10.9688L61.13 11.0599L61.1153 11.0664L61.1015 11.0746L60.905 11.1925L60.6847 11.3221L60.4505 11.4523L60.4355 11.4605L60.4219 11.4708L60.3367 11.5346L60.1344 11.6305L59.7843 11.7096L59.4202 11.6982L59.1929 11.6441L58.8645 11.4916L58.5851 11.3054L58.3767 11.0969L58.2171 10.8917L58.0656 10.5887L57.9591 10.2576L57.926 10.0369L57.938 9.67899L57.987 9.34776L58.0702 8.99146L58.2062 8.71936L58.3736 8.485L58.4279 8.43976L58.4281 8.44L58.4374 8.4314L59.2932 7.64146L59.3079 7.62791L59.3202 7.61221L59.6099 7.24357L59.6099 7.24361L59.6133 7.23912L59.8503 6.92314L59.8628 6.9064L59.8724 6.8878L60.0831 6.47966L60.0831 6.4797L60.0858 6.47423L60.3062 6.02043L60.4697 5.73115L60.6224 5.49631L60.8641 5.2546L61.2402 4.99601L61.6189 4.8583L61.8784 4.82446H62.1619L62.4231 4.85853L62.6917 4.95198L62.8946 5.04213L63.0597 5.16326L63.1904 5.28207L63.3192 5.4108L63.5117 5.66353L63.6851 5.94833L63.8238 6.21324L63.9402 6.45886L63.9399 6.45899L63.9457 6.46989L64.1432 6.83853L64.1489 6.84914L64.1556 6.85915L64.3399 7.13563L64.3396 7.13585L64.3479 7.14696L64.5454 7.41027L64.5521 7.41921L64.5596 7.42751L64.7966 7.69083L64.8032 7.69823L64.8105 7.70508L65.0606 7.94206L65.0606 7.94209L65.064 7.94519L65.3668 8.22167Z" stroke="#DAD6D3" stroke-width="0.5"/>
<path d="M64.0331 0.403552C64.3204 0.433943 64.5882 0.629843 64.7782 0.972502C64.9677 1.31435 65.0657 1.78263 65.0116 2.29458C64.9574 2.80653 64.7636 3.24394 64.5067 3.53857C64.2493 3.8339 63.9464 3.96944 63.6591 3.93904C63.3718 3.90865 63.104 3.71275 62.9141 3.37009C62.7245 3.02825 62.6265 2.55997 62.6807 2.04801C62.7348 1.53606 62.9287 1.09866 63.1855 0.804024C63.443 0.508694 63.7458 0.373161 64.0331 0.403552Z" stroke="#DAD6D3" stroke-width="0.5"/>
<path d="M61.3553 2.04257C61.4095 2.55453 61.3115 3.02281 61.1219 3.36465C60.932 3.70731 60.6642 3.90321 60.3769 3.9336C60.0896 3.96399 59.7867 3.82846 59.5292 3.53313C59.2724 3.2385 59.0786 2.80109 59.0244 2.28914C58.9703 1.77719 59.0683 1.30891 59.2578 0.967063C59.4478 0.624404 59.7156 0.428505 60.0029 0.398114C60.2902 0.367723 60.593 0.503255 60.8505 0.798585C61.1073 1.09322 61.3012 1.53062 61.3553 2.04257Z" stroke="#DAD6D3" stroke-width="0.5"/>
<path d="M66.8654 3.5902C67.1481 3.65317 67.3921 3.87752 67.5422 4.23697C67.692 4.59569 67.7368 5.06857 67.6257 5.56716C67.5147 6.06575 67.2734 6.47492 66.9856 6.73617C66.6971 6.99795 66.381 7.09754 66.0983 7.03458C65.8156 6.97161 65.5716 6.74726 65.4215 6.38781C65.2717 6.0291 65.2269 5.55621 65.338 5.05762C65.449 4.55903 65.6903 4.14986 65.9781 3.88862C66.2666 3.62683 66.5827 3.52724 66.8654 3.5902Z" stroke="#DAD6D3" stroke-width="0.5"/>
<path d="M58.7004 5.05711C58.8115 5.55569 58.7667 6.02858 58.6169 6.38729C58.4668 6.74675 58.2228 6.9711 57.9401 7.03406C57.6574 7.09703 57.3413 6.99744 57.0528 6.73565C56.765 6.47441 56.5237 6.06523 56.4127 5.56665C56.3016 5.06806 56.3464 4.59517 56.4962 4.23646C56.6463 3.87701 56.8903 3.65265 57.173 3.58969C57.4557 3.52673 57.7718 3.62632 58.0603 3.8881C58.3481 4.14935 58.5894 4.55852 58.7004 5.05711Z" stroke="#DAD6D3" stroke-width="0.5"/>
<path d="M83.9437 8.22167L83.9437 8.22168L83.945 8.22287L84.1925 8.44563L84.364 8.66283L84.4914 8.89456L84.5374 9.00946L84.6125 9.20971L84.644 9.31459L84.6798 9.5776L84.6917 9.73187V10.0081L84.6573 10.2607L84.5635 10.5655L84.4111 10.882L84.2389 11.1116L83.9905 11.36L83.7632 11.5192L83.4337 11.6721L83.188 11.7391L83.0443 11.7494L82.854 11.7382L82.6333 11.6941L82.3938 11.5915L82.1362 11.4442L81.8395 11.2507L81.8275 11.2429L81.8147 11.2365L81.4461 11.0522L81.4461 11.0522L81.4422 11.0503L81.1393 10.9055L81.1127 10.8927L81.0839 10.8865L80.8995 10.847L80.8996 10.8467L80.8861 10.8446L80.636 10.8051L80.6088 10.8008L80.5814 10.8025L80.3708 10.8157L80.346 10.8172L80.3219 10.8236L80.1245 10.8763L80.1037 10.8818L80.0841 10.8908L79.9152 10.9688L79.7069 11.0599L79.6922 11.0664L79.6784 11.0746L79.4819 11.1925L79.2616 11.3221L79.0274 11.4523L79.0124 11.4605L78.9988 11.4708L78.9136 11.5346L78.7113 11.6305L78.3612 11.7096L77.9971 11.6982L77.7698 11.6441L77.4414 11.4916L77.162 11.3054L76.9536 11.0969L76.794 10.8917L76.6425 10.5887L76.536 10.2576L76.5029 10.0369L76.5149 9.67899L76.5639 9.34776L76.6471 8.99146L76.7831 8.71936L76.9505 8.485L77.0048 8.43976L77.005 8.44L77.0143 8.4314L77.8701 7.64146L77.8848 7.62791L77.8971 7.61221L78.1868 7.24357L78.1868 7.24361L78.1902 7.23912L78.4272 6.92314L78.4397 6.9064L78.4493 6.8878L78.66 6.47966L78.6601 6.4797L78.6627 6.47423L78.8831 6.02043L79.0466 5.73115L79.1993 5.49631L79.441 5.2546L79.8171 4.99601L80.1958 4.8583L80.4553 4.82446H80.7388L81 4.85853L81.2686 4.95198L81.4715 5.04213L81.6367 5.16326L81.7673 5.28207L81.8961 5.4108L82.0886 5.66353L82.262 5.94833L82.4007 6.21324L82.5171 6.45886L82.5168 6.45899L82.5227 6.46989L82.7201 6.83853L82.7258 6.84914L82.7325 6.85915L82.9168 7.13563L82.9165 7.13585L82.9248 7.14696L83.1223 7.41027L83.129 7.41921L83.1365 7.42751L83.3735 7.69083L83.3801 7.69823L83.3874 7.70508L83.6375 7.94206L83.6375 7.94209L83.6409 7.94519L83.9437 8.22167Z" stroke="#DAD6D3" stroke-width="0.5"/>
<path d="M82.61 0.403552C82.8973 0.433943 83.1651 0.629843 83.3551 0.972502C83.5446 1.31435 83.6426 1.78263 83.5885 2.29458C83.5343 2.80653 83.3405 3.24394 83.0837 3.53857C82.8262 3.8339 82.5233 3.96944 82.236 3.93904C81.9487 3.90865 81.6809 3.71275 81.491 3.37009C81.3014 3.02825 81.2034 2.55997 81.2576 2.04801C81.3117 1.53606 81.5056 1.09866 81.7624 0.804024C82.0199 0.508694 82.3227 0.373161 82.61 0.403552Z" stroke="#DAD6D3" stroke-width="0.5"/>
<path d="M79.9322 2.04257C79.9864 2.55453 79.8884 3.02281 79.6988 3.36465C79.5089 3.70731 79.2411 3.90321 78.9538 3.9336C78.6665 3.96399 78.3636 3.82846 78.1062 3.53313C77.8493 3.2385 77.6555 2.80109 77.6013 2.28914C77.5472 1.77719 77.6452 1.30891 77.8347 0.967063C78.0247 0.624404 78.2925 0.428505 78.5798 0.398114C78.8671 0.367723 79.1699 0.503255 79.4274 0.798585C79.6842 1.09322 79.8781 1.53062 79.9322 2.04257Z" stroke="#DAD6D3" stroke-width="0.5"/>
<path d="M85.4423 3.5902C85.725 3.65317 85.969 3.87752 86.1191 4.23697C86.2689 4.59569 86.3137 5.06857 86.2026 5.56716C86.0916 6.06575 85.8503 6.47492 85.5625 6.73617C85.274 6.99795 84.9579 7.09754 84.6752 7.03458C84.3925 6.97161 84.1485 6.74726 83.9984 6.38781C83.8486 6.0291 83.8038 5.55621 83.9149 5.05762C84.0259 4.55903 84.2672 4.14986 84.555 3.88862C84.8435 3.62683 85.1596 3.52724 85.4423 3.5902Z" stroke="#DAD6D3" stroke-width="0.5"/>
<path d="M77.2773 5.05711C77.3884 5.55569 77.3436 6.02858 77.1938 6.38729C77.0437 6.74675 76.7997 6.9711 76.517 7.03406C76.2343 7.09703 75.9182 6.99744 75.6297 6.73565C75.3419 6.47441 75.1006 6.06523 74.9896 5.56665C74.8785 5.06806 74.9233 4.59517 75.0731 4.23646C75.2232 3.87701 75.4672 3.65265 75.7499 3.58969C76.0326 3.52673 76.3487 3.62632 76.6372 3.8881C76.925 4.14935 77.1663 4.55852 77.2773 5.05711Z" stroke="#DAD6D3" stroke-width="0.5"/>
</svg>
