<svg width="76" height="12" viewBox="0 0 76 12" fill="none" xmlns="http://www.w3.org/2000/svg">
<path d="M5.52455 1.46354C5.67455 1.00304 6.32605 1.00304 6.47555 1.46354L7.23505 3.80054C7.26773 3.90078 7.33127 3.98813 7.41658 4.05009C7.50189 4.11205 7.60461 4.14546 7.71005 4.14554H10.1675C10.652 4.14554 10.853 4.76554 10.4615 5.05054L8.47355 6.49454C8.38815 6.55662 8.3246 6.64414 8.29199 6.74456C8.25939 6.84497 8.25941 6.95313 8.29205 7.05354L9.05105 9.39054C9.20105 9.85154 8.67355 10.2345 8.28205 9.94954L6.29405 8.50554C6.2086 8.44343 6.10568 8.40997 6.00005 8.40997C5.89441 8.40997 5.79149 8.44343 5.70605 8.50554L3.71805 9.94954C3.32655 10.2345 2.79905 9.85104 2.94905 9.39054L3.70805 7.05354C3.74069 6.95313 3.74071 6.84497 3.7081 6.74456C3.6755 6.64414 3.61194 6.55662 3.52655 6.49454L1.53855 5.05054C1.14655 4.76554 1.34855 4.14554 1.83255 4.14554H4.28955C4.39507 4.14557 4.4979 4.11221 4.58331 4.05024C4.66872 3.98827 4.73234 3.90086 4.76505 3.80054L5.52455 1.46354Z" fill="#EBC500" stroke="#EBC500" stroke-linecap="round" stroke-linejoin="round"/>
<path d="M21.5245 1.46354C21.6745 1.00304 22.326 1.00304 22.4755 1.46354L23.235 3.80054C23.2677 3.90078 23.3313 3.98813 23.4166 4.05009C23.5019 4.11205 23.6046 4.14546 23.71 4.14554H26.1675C26.652 4.14554 26.853 4.76554 26.4615 5.05054L24.4735 6.49454C24.3882 6.55662 24.3246 6.64414 24.292 6.74456C24.2594 6.84497 24.2594 6.95313 24.292 7.05354L25.051 9.39054C25.201 9.85154 24.6735 10.2345 24.282 9.94954L22.294 8.50554C22.2086 8.44343 22.1057 8.40997 22 8.40997C21.8944 8.40997 21.7915 8.44343 21.706 8.50554L19.718 9.94954C19.3265 10.2345 18.799 9.85104 18.949 9.39054L19.708 7.05354C19.7407 6.95313 19.7407 6.84497 19.7081 6.74456C19.6755 6.64414 19.6119 6.55662 19.5265 6.49454L17.5385 5.05054C17.1465 4.76554 17.3485 4.14554 17.8325 4.14554H20.2895C20.3951 4.14557 20.4979 4.11221 20.5833 4.05024C20.6687 3.98827 20.7323 3.90086 20.765 3.80054L21.5245 1.46354Z" fill="#EBC500" stroke="#EBC500" stroke-linecap="round" stroke-linejoin="round"/>
<path d="M37.5245 1.46354C37.6745 1.00304 38.326 1.00304 38.4755 1.46354L39.235 3.80054C39.2677 3.90078 39.3313 3.98813 39.4166 4.05009C39.5019 4.11205 39.6046 4.14546 39.71 4.14554H42.1675C42.652 4.14554 42.853 4.76554 42.4615 5.05054L40.4735 6.49454C40.3882 6.55662 40.3246 6.64414 40.292 6.74456C40.2594 6.84497 40.2594 6.95313 40.292 7.05354L41.051 9.39054C41.201 9.85154 40.6735 10.2345 40.282 9.94954L38.294 8.50554C38.2086 8.44343 38.1057 8.40997 38 8.40997C37.8944 8.40997 37.7915 8.44343 37.706 8.50554L35.718 9.94954C35.3265 10.2345 34.799 9.85104 34.949 9.39054L35.708 7.05354C35.7407 6.95313 35.7407 6.84497 35.7081 6.74456C35.6755 6.64414 35.6119 6.55662 35.5265 6.49454L33.5385 5.05054C33.1465 4.76554 33.3485 4.14554 33.8325 4.14554H36.2895C36.3951 4.14557 36.4979 4.11221 36.5833 4.05024C36.6687 3.98827 36.7323 3.90086 36.765 3.80054L37.5245 1.46354Z" fill="#EBC500" stroke="#EBC500" stroke-linecap="round" stroke-linejoin="round"/>
<path d="M53.5245 1.46354C53.6745 1.00304 54.326 1.00304 54.4755 1.46354L55.235 3.80054C55.2677 3.90078 55.3313 3.98813 55.4166 4.05009C55.5019 4.11205 55.6046 4.14546 55.71 4.14554H58.1675C58.652 4.14554 58.853 4.76554 58.4615 5.05054L56.4735 6.49454C56.3882 6.55662 56.3246 6.64414 56.292 6.74456C56.2594 6.84497 56.2594 6.95313 56.292 7.05354L57.051 9.39054C57.201 9.85154 56.6735 10.2345 56.282 9.94954L54.294 8.50554C54.2086 8.44343 54.1057 8.40997 54 8.40997C53.8944 8.40997 53.7915 8.44343 53.706 8.50554L51.718 9.94954C51.3265 10.2345 50.799 9.85104 50.949 9.39054L51.708 7.05354C51.7407 6.95313 51.7407 6.84497 51.7081 6.74456C51.6755 6.64414 51.6119 6.55662 51.5265 6.49454L49.5385 5.05054C49.1465 4.76554 49.3485 4.14554 49.8325 4.14554H52.2895C52.3951 4.14557 52.4979 4.11221 52.5833 4.05024C52.6687 3.98827 52.7323 3.90086 52.765 3.80054L53.5245 1.46354Z" fill="#EBC500" stroke="#EBC500" stroke-linecap="round" stroke-linejoin="round"/>
<path d="M69.5245 1.46354C69.6745 1.00304 70.326 1.00304 70.4755 1.46354L71.235 3.80054C71.2677 3.90078 71.3313 3.98813 71.4166 4.05009C71.5019 4.11205 71.6046 4.14546 71.71 4.14554H74.1675C74.652 4.14554 74.853 4.76554 74.4615 5.05054L72.4735 6.49454C72.3882 6.55662 72.3246 6.64414 72.292 6.74456C72.2594 6.84497 72.2594 6.95313 72.292 7.05354L73.051 9.39054C73.201 9.85154 72.6735 10.2345 72.282 9.94954L70.294 8.50554C70.2086 8.44343 70.1057 8.40997 70 8.40997C69.8944 8.40997 69.7915 8.44343 69.706 8.50554L67.718 9.94954C67.3265 10.2345 66.799 9.85104 66.949 9.39054L67.708 7.05354C67.7407 6.95313 67.7407 6.84497 67.7081 6.74456C67.6755 6.64414 67.6119 6.55662 67.5265 6.49454L65.5385 5.05054C65.1465 4.76554 65.3485 4.14554 65.8325 4.14554H68.2895C68.3951 4.14557 68.4979 4.11221 68.5833 4.05024C68.6687 3.98827 68.7323 3.90086 68.765 3.80054L69.5245 1.46354V1.46354Z" stroke="#EEEEEE" stroke-linecap="round" stroke-linejoin="round"/>
</svg>
