<svg width="88" height="12" viewBox="0 0 88 12" fill="none" xmlns="http://www.w3.org/2000/svg">
<path d="M10.9353 9.26158L10.8958 9.12993L10.8168 8.91928L10.7641 8.78762L10.6193 8.5243L10.4218 8.27415L10.1585 8.03717L9.85571 7.76069L9.60556 7.52371L9.36858 7.26039L9.17109 6.99708L8.98677 6.7206L8.78929 6.35196L8.6708 6.10181L8.52597 5.82533L8.34165 5.52252L8.131 5.24604L7.98618 5.10121L7.84136 4.96956L7.64387 4.82473L7.40689 4.71941L7.10407 4.61408L6.80126 4.57458H6.48529L6.18247 4.61408L5.748 4.77207L5.3267 5.06172L5.05022 5.3382L4.87907 5.60151L4.70791 5.90432L4.48409 6.36512L4.27344 6.77326L4.03646 7.08924L3.74681 7.45788L2.89104 8.24782L2.81205 8.31365L2.61456 8.59013L2.45657 8.90611L2.36441 9.30108L2.31175 9.65656L2.29858 10.0515L2.33808 10.3148L2.45657 10.6835L2.62773 11.0258L2.81205 11.2628L3.04903 11.4998L3.36501 11.7104L3.73365 11.8816L4.01013 11.9474L4.43143 11.9606L4.83957 11.8684L5.08972 11.7499L5.19504 11.6709L5.43203 11.5393L5.65584 11.4076L5.85333 11.2891L6.06398 11.1969L6.23514 11.118L6.43262 11.0653L6.64327 11.0521L6.89342 11.0916L7.07774 11.1311L7.38056 11.2759L7.7492 11.4603L8.05201 11.6577L8.32849 11.8157L8.60497 11.9342L8.86828 11.9869L9.0921 12.0001L9.27642 11.9869L9.56607 11.9079L9.93471 11.7367L10.198 11.5524L10.4745 11.2759L10.672 11.0126L10.8431 10.6572L10.9485 10.3148L10.988 10.0252V9.72239L10.9748 9.55123L10.9353 9.26158Z" fill="#B5B0AD"/>
<path d="M9.88337 2.32088C10.0012 1.20727 9.46356 0.23754 8.68259 0.154927C7.90161 0.0723141 7.17301 0.908103 7.05521 2.02171C6.93741 3.13533 7.47502 4.10506 8.256 4.18767C9.03697 4.27028 9.76557 3.43449 9.88337 2.32088Z" fill="#B5B0AD"/>
<path d="M5.02634 4.18235C5.80731 4.09974 6.34492 3.13001 6.22712 2.0164C6.10932 0.902787 5.38072 0.0669979 4.59975 0.149611C3.81877 0.232223 3.28116 1.20195 3.39896 2.31556C3.51676 3.42917 4.24536 4.26496 5.02634 4.18235Z" fill="#B5B0AD"/>
<path d="M12.4929 5.62151C12.7348 4.5356 12.3095 3.5169 11.5429 3.34618C10.7764 3.17546 9.95895 3.91736 9.7171 5.00327C9.47524 6.08918 9.90057 7.10788 10.6671 7.2786C11.4336 7.44933 12.2511 6.70742 12.4929 5.62151Z" fill="#B5B0AD"/>
<path d="M2.61764 7.27821C3.38416 7.10749 3.80949 6.08879 3.56763 5.00288C3.32578 3.91697 2.50832 3.17506 1.7418 3.34579C0.975273 3.51651 0.549946 4.53521 0.791803 5.62112C1.03366 6.70703 1.85111 7.44893 2.61764 7.27821Z" fill="#B5B0AD"/>
<path d="M29.5122 9.26158L29.4727 9.12993L29.3937 8.91928L29.3411 8.78762L29.1962 8.5243L28.9987 8.27415L28.7354 8.03717L28.4326 7.76069L28.1825 7.52371L27.9455 7.26039L27.748 6.99708L27.5637 6.7206L27.3662 6.35196L27.2477 6.10181L27.1029 5.82533L26.9186 5.52252L26.7079 5.24604L26.5631 5.10121L26.4183 4.96956L26.2208 4.82473L25.9838 4.71941L25.681 4.61408L25.3782 4.57458H25.0622L24.7594 4.61408L24.3249 4.77207L23.9036 5.06172L23.6271 5.3382L23.456 5.60151L23.2848 5.90432L23.061 6.36512L22.8503 6.77326L22.6134 7.08924L22.3237 7.45788L21.4679 8.24782L21.389 8.31365L21.1915 8.59013L21.0335 8.90611L20.9413 9.30108L20.8887 9.65656L20.8755 10.0515L20.915 10.3148L21.0335 10.6835L21.2046 11.0258L21.389 11.2628L21.6259 11.4998L21.9419 11.7104L22.3106 11.8816L22.587 11.9474L23.0083 11.9606L23.4165 11.8684L23.6666 11.7499L23.7719 11.6709L24.0089 11.5393L24.2327 11.4076L24.4302 11.2891L24.6409 11.1969L24.812 11.118L25.0095 11.0653L25.2202 11.0521L25.4703 11.0916L25.6546 11.1311L25.9575 11.2759L26.3261 11.4603L26.6289 11.6577L26.9054 11.8157L27.1819 11.9342L27.4452 11.9869L27.669 12.0001L27.8533 11.9869L28.143 11.9079L28.5116 11.7367L28.7749 11.5524L29.0514 11.2759L29.2489 11.0126L29.42 10.6572L29.5254 10.3148L29.5649 10.0252V9.72239L29.5517 9.55123L29.5122 9.26158Z" fill="#B5B0AD"/>
<path d="M28.4603 2.32088C28.5781 1.20727 28.0405 0.23754 27.2595 0.154927C26.4785 0.0723141 25.7499 0.908103 25.6321 2.02171C25.5143 3.13533 26.0519 4.10506 26.8329 4.18767C27.6139 4.27028 28.3425 3.43449 28.4603 2.32088Z" fill="#B5B0AD"/>
<path d="M23.6032 4.18235C24.3842 4.09974 24.9218 3.13001 24.804 2.0164C24.6862 0.902787 23.9576 0.0669979 23.1767 0.149611C22.3957 0.232223 21.8581 1.20195 21.9759 2.31556C22.0937 3.42917 22.8223 4.26496 23.6032 4.18235Z" fill="#B5B0AD"/>
<path d="M31.0698 5.62151C31.3117 4.5356 30.8864 3.5169 30.1198 3.34618C29.3533 3.17546 28.5359 3.91736 28.294 5.00327C28.0521 6.08918 28.4775 7.10788 29.244 7.2786C30.0105 7.44933 30.828 6.70742 31.0698 5.62151Z" fill="#B5B0AD"/>
<path d="M21.1945 7.27821C21.9611 7.10749 22.3864 6.08879 22.1445 5.00288C21.9027 3.91697 21.0852 3.17506 20.3187 3.34579C19.5522 3.51651 19.1269 4.53521 19.3687 5.62112C19.6106 6.70703 20.428 7.44893 21.1945 7.27821Z" fill="#B5B0AD"/>
<path d="M48.0891 9.26158L48.0496 9.12993L47.9706 8.91928L47.918 8.78762L47.7731 8.5243L47.5756 8.27415L47.3123 8.03717L47.0095 7.76069L46.7594 7.52371L46.5224 7.26039L46.3249 6.99708L46.1406 6.7206L45.9431 6.35196L45.8246 6.10181L45.6798 5.82533L45.4955 5.52252L45.2848 5.24604L45.14 5.10121L44.9952 4.96956L44.7977 4.82473L44.5607 4.71941L44.2579 4.61408L43.9551 4.57458H43.6391L43.3363 4.61408L42.9018 4.77207L42.4805 5.06172L42.204 5.3382L42.0329 5.60151L41.8617 5.90432L41.6379 6.36512L41.4273 6.77326L41.1903 7.08924L40.9006 7.45788L40.0449 8.24782L39.9659 8.31365L39.7684 8.59013L39.6104 8.90611L39.5182 9.30108L39.4656 9.65656L39.4524 10.0515L39.4919 10.3148L39.6104 10.6835L39.7815 11.0258L39.9659 11.2628L40.2028 11.4998L40.5188 11.7104L40.8875 11.8816L41.1639 11.9474L41.5852 11.9606L41.9934 11.8684L42.2435 11.7499L42.3489 11.6709L42.5858 11.5393L42.8097 11.4076L43.0071 11.2891L43.2178 11.1969L43.3889 11.118L43.5864 11.0653L43.7971 11.0521L44.0472 11.0916L44.2316 11.1311L44.5344 11.2759L44.903 11.4603L45.2058 11.6577L45.4823 11.8157L45.7588 11.9342L46.0221 11.9869L46.2459 12.0001L46.4302 11.9869L46.7199 11.9079L47.0885 11.7367L47.3518 11.5524L47.6283 11.2759L47.8258 11.0126L47.997 10.6572L48.1023 10.3148L48.1418 10.0252V9.72239L48.1286 9.55123L48.0891 9.26158Z" fill="#B5B0AD"/>
<path d="M47.0372 2.32088C47.155 1.20727 46.6174 0.23754 45.8364 0.154927C45.0554 0.0723141 44.3268 0.908103 44.209 2.02171C44.0912 3.13533 44.6288 4.10506 45.4098 4.18767C46.1908 4.27028 46.9194 3.43449 47.0372 2.32088Z" fill="#B5B0AD"/>
<path d="M42.1801 4.18235C42.9611 4.09974 43.4987 3.13001 43.3809 2.0164C43.2631 0.902787 42.5345 0.0669979 41.7536 0.149611C40.9726 0.232223 40.435 1.20195 40.5528 2.31556C40.6706 3.42917 41.3992 4.26496 42.1801 4.18235Z" fill="#B5B0AD"/>
<path d="M49.6467 5.62151C49.8886 4.5356 49.4633 3.5169 48.6967 3.34618C47.9302 3.17546 47.1128 3.91736 46.8709 5.00327C46.629 6.08918 47.0544 7.10788 47.8209 7.2786C48.5874 7.44933 49.4049 6.70742 49.6467 5.62151Z" fill="#B5B0AD"/>
<path d="M39.7714 7.27821C40.538 7.10749 40.9633 6.08879 40.7214 5.00288C40.4796 3.91697 39.6621 3.17506 38.8956 3.34579C38.1291 3.51651 37.7038 4.53521 37.9456 5.62112C38.1875 6.70703 39.0049 7.44893 39.7714 7.27821Z" fill="#B5B0AD"/>
<path d="M65.7207 8.22179L65.7207 8.2218L65.722 8.223L65.9695 8.44575L66.141 8.66295L66.2684 8.89468L66.3144 9.00958L66.3895 9.20983L66.4209 9.31472L66.4568 9.57773L66.4687 9.73199V10.0082L66.4342 10.2608L66.3404 10.5657L66.188 10.8822L66.0159 11.1117L65.7674 11.3602L65.5401 11.5193L65.2106 11.6723L64.9649 11.7393L64.8212 11.7495L64.631 11.7383L64.4102 11.6942L64.1708 11.5916L63.9131 11.4443L63.6165 11.2509L63.6045 11.243L63.5917 11.2367L63.2231 11.0523L63.2231 11.0523L63.2191 11.0504L62.9163 10.9056L62.8897 10.8929L62.8608 10.8867L62.6765 10.8472L62.6766 10.8468L62.6631 10.8447L62.413 10.8052L62.3858 10.8009L62.3584 10.8026L62.1477 10.8158L62.1229 10.8173L62.0989 10.8237L61.9014 10.8764L61.8806 10.8819L61.8611 10.891L61.6922 10.9689L61.4838 11.0601L61.4692 11.0665L61.4554 11.0747L61.2589 11.1926L61.0386 11.3222L60.8043 11.4524L60.7894 11.4607L60.7758 11.4709L60.6906 11.5348L60.4882 11.6306L60.1381 11.7097L59.774 11.6983L59.5468 11.6442L59.2184 11.4917L58.939 11.3055L58.7305 11.097L58.571 10.8918L58.4194 10.5888L58.313 10.2577L58.2799 10.037L58.2918 9.67911L58.3409 9.34788L58.4241 8.99158L58.5601 8.71948L58.7275 8.48513L58.7818 8.43988L58.782 8.44013L58.7913 8.43152L59.6471 7.64158L59.6618 7.62804L59.6741 7.61234L59.9638 7.2437L59.9638 7.24373L59.9672 7.23924L60.2042 6.92326L60.2167 6.90652L60.2263 6.88792L60.437 6.47979L60.437 6.47982L60.4397 6.47435L60.6601 6.02056L60.8236 5.73127L60.9763 5.49643L61.218 5.25472L61.5941 4.99613L61.9728 4.85843L62.2322 4.82458H62.5157L62.7769 4.85866L63.0456 4.9521L63.2484 5.04225L63.4136 5.16339L63.5443 5.2822L63.673 5.41092L63.8656 5.66365L64.039 5.94845L64.1777 6.21336L64.2941 6.45898L64.2938 6.45911L64.2996 6.47001L64.4971 6.83865L64.5028 6.84926L64.5095 6.85927L64.6938 7.13575L64.6935 7.13597L64.7018 7.14708L64.8993 7.41039L64.906 7.41933L64.9135 7.42764L65.1505 7.69095L65.1571 7.69835L65.1643 7.7052L65.4145 7.94218L65.4145 7.94221L65.4179 7.94531L65.7207 8.22179Z" stroke="#DAD6D3" stroke-width="0.5"/>
<path d="M64.387 0.403552C64.6743 0.433943 64.9421 0.629843 65.1321 0.972502C65.3216 1.31435 65.4196 1.78263 65.3655 2.29458C65.3113 2.80653 65.1175 3.24394 64.8606 3.53857C64.6032 3.8339 64.3003 3.96944 64.013 3.93904C63.7257 3.90865 63.4579 3.71275 63.2679 3.37009C63.0784 3.02825 62.9804 2.55997 63.0346 2.04801C63.0887 1.53606 63.2825 1.09866 63.5394 0.804024C63.7968 0.508694 64.0997 0.373161 64.387 0.403552Z" stroke="#DAD6D3" stroke-width="0.5"/>
<path d="M61.7092 2.0427C61.7634 2.55465 61.6653 3.02293 61.4758 3.36478C61.2859 3.70744 61.018 3.90334 60.7307 3.93373C60.4435 3.96412 60.1406 3.82858 59.8831 3.53325C59.6263 3.23862 59.4325 2.80122 59.3783 2.28926C59.3241 1.77731 59.4222 1.30903 59.6117 0.967185C59.8017 0.624526 60.0695 0.428627 60.3568 0.398236C60.6441 0.367845 60.9469 0.503377 61.2044 0.798707C61.4612 1.09334 61.6551 1.53075 61.7092 2.0427Z" stroke="#DAD6D3" stroke-width="0.5"/>
<path d="M67.2193 3.5902C67.502 3.65317 67.746 3.87752 67.8961 4.23697C68.0458 4.59569 68.0907 5.06857 67.9796 5.56716C67.8686 6.06575 67.6273 6.47492 67.3395 6.73617C67.051 6.99795 66.7349 7.09754 66.4522 7.03458C66.1695 6.97161 65.9254 6.74726 65.7754 6.38781C65.6256 6.0291 65.5808 5.55621 65.6918 5.05762C65.8029 4.55903 66.0441 4.14986 66.332 3.88862C66.6204 3.62683 66.9366 3.52724 67.2193 3.5902Z" stroke="#DAD6D3" stroke-width="0.5"/>
<path d="M59.0543 5.05723C59.1654 5.55582 59.1206 6.0287 58.9708 6.38742C58.8207 6.74687 58.5767 6.97122 58.294 7.03418C58.0113 7.09715 57.6951 6.99756 57.4067 6.73577C57.1189 6.47453 56.8776 6.06536 56.7665 5.56677C56.6555 5.06818 56.7003 4.59529 56.8501 4.23658C57.0002 3.87713 57.2442 3.65278 57.5269 3.58981C57.8096 3.52685 58.1257 3.62644 58.4142 3.88822C58.702 4.14947 58.9433 4.55864 59.0543 5.05723Z" stroke="#DAD6D3" stroke-width="0.5"/>
<path d="M84.2977 8.22179L84.2977 8.2218L84.299 8.223L84.5465 8.44575L84.718 8.66295L84.8455 8.89468L84.8914 9.00958L84.9665 9.20983L84.998 9.31472L85.0338 9.57773L85.0457 9.73199V10.0082L85.0113 10.2608L84.9175 10.5657L84.7651 10.8822L84.5929 11.1117L84.3445 11.3602L84.1172 11.5193L83.7877 11.6723L83.542 11.7393L83.3983 11.7495L83.208 11.7383L82.9873 11.6942L82.7478 11.5916L82.4902 11.4443L82.1935 11.2509L82.1815 11.243L82.1687 11.2367L81.8001 11.0523L81.8001 11.0523L81.7962 11.0504L81.4933 10.9056L81.4667 10.8929L81.4379 10.8867L81.2535 10.8472L81.2536 10.8468L81.2402 10.8447L80.99 10.8052L80.9629 10.8009L80.9354 10.8026L80.7248 10.8158L80.7 10.8173L80.6759 10.8237L80.4785 10.8764L80.4577 10.8819L80.4381 10.891L80.2692 10.9689L80.0609 11.0601L80.0462 11.0665L80.0324 11.0747L79.8359 11.1926L79.6157 11.3222L79.3814 11.4524L79.3664 11.4607L79.3528 11.4709L79.2676 11.5348L79.0653 11.6306L78.7152 11.7097L78.3511 11.6983L78.1238 11.6442L77.7954 11.4917L77.516 11.3055L77.3076 11.097L77.148 10.8918L76.9965 10.5888L76.89 10.2577L76.8569 10.037L76.8689 9.67911L76.9179 9.34788L77.0011 8.99158L77.1371 8.71948L77.3045 8.48513L77.3588 8.43988L77.359 8.44013L77.3684 8.43152L78.2241 7.64158L78.2388 7.62804L78.2511 7.61234L78.5408 7.2437L78.5408 7.24373L78.5442 7.23924L78.7812 6.92326L78.7937 6.90652L78.8033 6.88792L79.014 6.47979L79.0141 6.47982L79.0167 6.47435L79.2371 6.02056L79.4006 5.73127L79.5533 5.49643L79.795 5.25472L80.1711 4.99613L80.5498 4.85843L80.8093 4.82458H81.0928L81.354 4.85866L81.6226 4.9521L81.8255 5.04225L81.9907 5.16339L82.1213 5.2822L82.2501 5.41092L82.4426 5.66365L82.616 5.94845L82.7547 6.21336L82.8711 6.45898L82.8708 6.45911L82.8767 6.47001L83.0741 6.83865L83.0798 6.84926L83.0865 6.85927L83.2708 7.13575L83.2705 7.13597L83.2788 7.14708L83.4763 7.41039L83.483 7.41933L83.4905 7.42764L83.7275 7.69095L83.7341 7.69835L83.7414 7.7052L83.9915 7.94218L83.9915 7.94221L83.9949 7.94531L84.2977 8.22179Z" stroke="#DAD6D3" stroke-width="0.5"/>
<path d="M82.964 0.403552C83.2513 0.433943 83.5191 0.629843 83.7091 0.972502C83.8986 1.31435 83.9966 1.78263 83.9425 2.29458C83.8883 2.80653 83.6945 3.24394 83.4377 3.53857C83.1802 3.8339 82.8773 3.96944 82.59 3.93904C82.3027 3.90865 82.0349 3.71275 81.845 3.37009C81.6554 3.02825 81.5574 2.55997 81.6116 2.04801C81.6657 1.53606 81.8596 1.09866 82.1164 0.804024C82.3739 0.508694 82.6767 0.373161 82.964 0.403552Z" stroke="#DAD6D3" stroke-width="0.5"/>
<path d="M80.2862 2.0427C80.3404 2.55465 80.2424 3.02293 80.0528 3.36478C79.8629 3.70744 79.5951 3.90334 79.3078 3.93373C79.0205 3.96412 78.7176 3.82858 78.4602 3.53325C78.2033 3.23862 78.0095 2.80122 77.9553 2.28926C77.9012 1.77731 77.9992 1.30903 78.1887 0.967185C78.3787 0.624526 78.6465 0.428627 78.9338 0.398236C79.2211 0.367845 79.524 0.503377 79.7814 0.798707C80.0382 1.09334 80.2321 1.53075 80.2862 2.0427Z" stroke="#DAD6D3" stroke-width="0.5"/>
<path d="M85.7963 3.5902C86.079 3.65317 86.323 3.87752 86.4731 4.23697C86.6229 4.59569 86.6677 5.06857 86.5566 5.56716C86.4456 6.06575 86.2043 6.47492 85.9165 6.73617C85.628 6.99795 85.3119 7.09754 85.0292 7.03458C84.7465 6.97161 84.5025 6.74726 84.3524 6.38781C84.2026 6.0291 84.1578 5.55621 84.2689 5.05762C84.3799 4.55903 84.6212 4.14986 84.909 3.88862C85.1975 3.62683 85.5136 3.52724 85.7963 3.5902Z" stroke="#DAD6D3" stroke-width="0.5"/>
<path d="M77.6313 5.05723C77.7424 5.55582 77.6976 6.0287 77.5478 6.38742C77.3977 6.74687 77.1537 6.97122 76.871 7.03418C76.5883 7.09715 76.2722 6.99756 75.9837 6.73577C75.6959 6.47453 75.4546 6.06536 75.3436 5.56677C75.2325 5.06818 75.2773 4.59529 75.4271 4.23658C75.5772 3.87713 75.8212 3.65278 76.1039 3.58981C76.3866 3.52685 76.7027 3.62644 76.9912 3.88822C77.279 4.14947 77.5203 4.55864 77.6313 5.05723Z" stroke="#DAD6D3" stroke-width="0.5"/>
</svg>
