<svg width="87" height="12" viewBox="0 0 87 12" fill="none" xmlns="http://www.w3.org/2000/svg">
<path d="M10.5813 9.26146L10.5418 9.12981L10.4628 8.91915L10.4101 8.7875L10.2653 8.52418L10.0678 8.27403L9.80452 8.03705L9.50171 7.76057L9.25156 7.52359L9.01458 7.26027L8.81709 6.99696L8.63277 6.72048L8.43528 6.35184L8.31679 6.10169L8.17197 5.82521L7.98765 5.5224L7.777 5.24592L7.63217 5.10109L7.48735 4.96943L7.28987 4.82461L7.05288 4.71929L6.75007 4.61396L6.44726 4.57446H6.13128L5.82847 4.61396L5.394 4.77195L4.9727 5.0616L4.69622 5.33808L4.52506 5.60139L4.35391 5.9042L4.13009 6.365L3.91944 6.77314L3.68246 7.08912L3.39281 7.45776L2.53704 8.2477L2.45804 8.31353L2.26056 8.59001L2.10257 8.90599L2.01041 9.30096L1.95775 9.65643L1.94458 10.0514L1.98408 10.3147L2.10257 10.6834L2.27372 11.0257L2.45804 11.2627L2.69503 11.4996L3.011 11.7103L3.37964 11.8814L3.65612 11.9473L4.07743 11.9604L4.48557 11.8683L4.73571 11.7498L4.84104 11.6708L5.07802 11.5391L5.30184 11.4075L5.49933 11.289L5.70998 11.1968L5.88113 11.1178L6.07862 11.0652L6.28927 11.052L6.53942 11.0915L6.72374 11.131L7.02655 11.2758L7.39519 11.4601L7.698 11.6576L7.97448 11.8156L8.25096 11.9341L8.51428 11.9868L8.7381 11.9999L8.92242 11.9868L9.21206 11.9078L9.5807 11.7366L9.84402 11.5523L10.1205 11.2758L10.318 11.0125L10.4891 10.657L10.5945 10.3147L10.634 10.0251V9.72226L10.6208 9.55111L10.5813 9.26146Z" fill="#B5B0AD"/>
<path d="M9.52949 2.32088C9.64729 1.20727 9.10968 0.23754 8.32871 0.154927C7.54773 0.0723141 6.81913 0.908103 6.70133 2.02171C6.58353 3.13533 7.12114 4.10506 7.90212 4.18767C8.68309 4.27028 9.41169 3.43449 9.52949 2.32088Z" fill="#B5B0AD"/>
<path d="M4.67245 4.18223C5.45343 4.09962 5.99104 3.12989 5.87324 2.01627C5.75544 0.902664 5.02684 0.0668758 4.24586 0.149489C3.46489 0.232101 2.92728 1.20183 3.04508 2.31544C3.16288 3.42905 3.89148 4.26484 4.67245 4.18223Z" fill="#B5B0AD"/>
<path d="M12.139 5.62151C12.3809 4.5356 11.9556 3.5169 11.189 3.34618C10.4225 3.17546 9.60507 3.91736 9.36321 5.00327C9.12136 6.08918 9.54668 7.10788 10.3132 7.2786C11.0797 7.44933 11.8972 6.70742 12.139 5.62151Z" fill="#B5B0AD"/>
<path d="M2.26376 7.27809C3.03028 7.10737 3.45561 6.08866 3.21375 5.00276C2.97189 3.91685 2.15444 3.17494 1.38792 3.34566C0.621391 3.51639 0.196064 4.53509 0.437921 5.621C0.679778 6.70691 1.49723 7.44881 2.26376 7.27809Z" fill="#B5B0AD"/>
<path d="M29.1582 9.26146L29.1187 9.12981L29.0397 8.91915L28.987 8.7875L28.8422 8.52418L28.6447 8.27403L28.3814 8.03705L28.0786 7.76057L27.8285 7.52359L27.5915 7.26027L27.394 6.99696L27.2097 6.72048L27.0122 6.35184L26.8937 6.10169L26.7489 5.82521L26.5646 5.5224L26.3539 5.24592L26.2091 5.10109L26.0643 4.96943L25.8668 4.82461L25.6298 4.71929L25.327 4.61396L25.0242 4.57446H24.7082L24.4054 4.61396L23.9709 4.77195L23.5496 5.0616L23.2731 5.33808L23.102 5.60139L22.9308 5.9042L22.707 6.365L22.4963 6.77314L22.2594 7.08912L21.9697 7.45776L21.1139 8.2477L21.0349 8.31353L20.8375 8.59001L20.6795 8.90599L20.5873 9.30096L20.5347 9.65643L20.5215 10.0514L20.561 10.3147L20.6795 10.6834L20.8506 11.0257L21.0349 11.2627L21.2719 11.4996L21.5879 11.7103L21.9565 11.8814L22.233 11.9473L22.6543 11.9604L23.0625 11.8683L23.3126 11.7498L23.4179 11.6708L23.6549 11.5391L23.8787 11.4075L24.0762 11.289L24.2869 11.1968L24.458 11.1178L24.6555 11.0652L24.8662 11.052L25.1163 11.0915L25.3006 11.131L25.6035 11.2758L25.9721 11.4601L26.2749 11.6576L26.5514 11.8156L26.8279 11.9341L27.0912 11.9868L27.315 11.9999L27.4993 11.9868L27.789 11.9078L28.1576 11.7366L28.4209 11.5523L28.6974 11.2758L28.8949 11.0125L29.066 10.657L29.1714 10.3147L29.2109 10.0251V9.72226L29.1977 9.55111L29.1582 9.26146Z" fill="#B5B0AD"/>
<path d="M28.1064 2.32088C28.2242 1.20727 27.6866 0.23754 26.9056 0.154927C26.1246 0.0723141 25.396 0.908103 25.2782 2.02171C25.1604 3.13533 25.698 4.10506 26.479 4.18767C27.26 4.27028 27.9886 3.43449 28.1064 2.32088Z" fill="#B5B0AD"/>
<path d="M23.2494 4.18223C24.0303 4.09962 24.5679 3.12989 24.4501 2.01627C24.3323 0.902664 23.6037 0.0668758 22.8228 0.149489C22.0418 0.232101 21.5042 1.20183 21.622 2.31544C21.7398 3.42905 22.4684 4.26484 23.2494 4.18223Z" fill="#B5B0AD"/>
<path d="M30.7159 5.62151C30.9578 4.5356 30.5325 3.5169 29.766 3.34618C28.9994 3.17546 28.182 3.91736 27.9401 5.00327C27.6983 6.08918 28.1236 7.10788 28.8901 7.2786C29.6566 7.44933 30.4741 6.70742 30.7159 5.62151Z" fill="#B5B0AD"/>
<path d="M20.8407 7.27809C21.6072 7.10737 22.0325 6.08866 21.7907 5.00276C21.5488 3.91685 20.7313 3.17494 19.9648 3.34566C19.1983 3.51639 18.773 4.53509 19.0148 5.621C19.2567 6.70691 20.0741 7.44881 20.8407 7.27809Z" fill="#B5B0AD"/>
<path d="M47.7351 9.26146L47.6956 9.12981L47.6166 8.91915L47.564 8.7875L47.4191 8.52418L47.2216 8.27403L46.9583 8.03705L46.6555 7.76057L46.4054 7.52359L46.1684 7.26027L45.9709 6.99696L45.7866 6.72048L45.5891 6.35184L45.4706 6.10169L45.3258 5.82521L45.1415 5.5224L44.9308 5.24592L44.786 5.10109L44.6412 4.96943L44.4437 4.82461L44.2067 4.71929L43.9039 4.61396L43.6011 4.57446H43.2851L42.9823 4.61396L42.5478 4.77195L42.1265 5.0616L41.85 5.33808L41.6789 5.60139L41.5077 5.9042L41.2839 6.365L41.0732 6.77314L40.8363 7.08912L40.5466 7.45776L39.6908 8.2477L39.6119 8.31353L39.4144 8.59001L39.2564 8.90599L39.1642 9.30096L39.1116 9.65643L39.0984 10.0514L39.1379 10.3147L39.2564 10.6834L39.4275 11.0257L39.6119 11.2627L39.8488 11.4996L40.1648 11.7103L40.5335 11.8814L40.8099 11.9473L41.2312 11.9604L41.6394 11.8683L41.8895 11.7498L41.9948 11.6708L42.2318 11.5391L42.4556 11.4075L42.6531 11.289L42.8638 11.1968L43.0349 11.1178L43.2324 11.0652L43.4431 11.052L43.6932 11.0915L43.8775 11.131L44.1804 11.2758L44.549 11.4601L44.8518 11.6576L45.1283 11.8156L45.4048 11.9341L45.6681 11.9868L45.8919 11.9999L46.0762 11.9868L46.3659 11.9078L46.7345 11.7366L46.9978 11.5523L47.2743 11.2758L47.4718 11.0125L47.6429 10.657L47.7483 10.3147L47.7878 10.0251V9.72226L47.7746 9.55111L47.7351 9.26146Z" fill="#B5B0AD"/>
<path d="M46.6833 2.32088C46.8011 1.20727 46.2635 0.23754 45.4825 0.154927C44.7015 0.0723141 43.9729 0.908103 43.8551 2.02171C43.7373 3.13533 44.275 4.10506 45.0559 4.18767C45.8369 4.27028 46.5655 3.43449 46.6833 2.32088Z" fill="#B5B0AD"/>
<path d="M41.8263 4.18223C42.6072 4.09962 43.1448 3.12989 43.027 2.01627C42.9092 0.902664 42.1806 0.0668758 41.3997 0.149489C40.6187 0.232101 40.0811 1.20183 40.1989 2.31544C40.3167 3.42905 41.0453 4.26484 41.8263 4.18223Z" fill="#B5B0AD"/>
<path d="M49.2929 5.62151C49.5347 4.5356 49.1094 3.5169 48.3429 3.34618C47.5763 3.17546 46.7589 3.91736 46.517 5.00327C46.2752 6.08918 46.7005 7.10788 47.467 7.2786C48.2335 7.44933 49.051 6.70742 49.2929 5.62151Z" fill="#B5B0AD"/>
<path d="M39.4176 7.27809C40.1841 7.10737 40.6094 6.08866 40.3676 5.00276C40.1257 3.91685 39.3082 3.17494 38.5417 3.34566C37.7752 3.51639 37.3499 4.53509 37.5917 5.621C37.8336 6.70691 38.651 7.44881 39.4176 7.27809Z" fill="#B5B0AD"/>
<path d="M65.3667 8.22167L65.3667 8.22168L65.368 8.22287L65.6155 8.44563L65.787 8.66283L65.9144 8.89456L65.9604 9.00946L66.0355 9.20971L66.0669 9.31459L66.1028 9.5776L66.1147 9.73187V10.0081L66.0802 10.2607L65.9864 10.5655L65.834 10.882L65.6619 11.1116L65.4134 11.36L65.1861 11.5192L64.8566 11.6721L64.6109 11.7391L64.4672 11.7494L64.277 11.7382L64.0562 11.6941L63.8168 11.5915L63.5591 11.4442L63.2625 11.2507L63.2505 11.2429L63.2377 11.2365L62.8691 11.0522L62.8691 11.0522L62.8651 11.0503L62.5623 10.9055L62.5357 10.8927L62.5068 10.8865L62.3225 10.847L62.3226 10.8467L62.3091 10.8446L62.059 10.8051L62.0318 10.8008L62.0044 10.8025L61.7937 10.8157L61.7689 10.8172L61.7449 10.8236L61.5474 10.8763L61.5266 10.8818L61.5071 10.8908L61.3382 10.9688L61.1298 11.0599L61.1152 11.0664L61.1014 11.0746L60.9049 11.1925L60.6846 11.3221L60.4503 11.4523L60.4354 11.4605L60.4218 11.4708L60.3366 11.5346L60.1342 11.6305L59.7841 11.7096L59.42 11.6982L59.1928 11.6441L58.8644 11.4916L58.585 11.3054L58.3765 11.0969L58.217 10.8917L58.0654 10.5887L57.959 10.2576L57.9259 10.0369L57.9378 9.67899L57.9869 9.34776L58.0701 8.99146L58.2061 8.71936L58.3735 8.485L58.4278 8.43976L58.428 8.44L58.4373 8.4314L59.2931 7.64146L59.3078 7.62791L59.3201 7.61221L59.6097 7.24357L59.6098 7.24361L59.6132 7.23912L59.8502 6.92314L59.8627 6.9064L59.8723 6.8878L60.083 6.47966L60.083 6.4797L60.0857 6.47423L60.3061 6.02043L60.4696 5.73115L60.6222 5.49631L60.864 5.2546L61.2401 4.99601L61.6188 4.8583L61.8782 4.82446H62.1617L62.4229 4.85853L62.6916 4.95198L62.8944 5.04213L63.0596 5.16326L63.1903 5.28207L63.319 5.4108L63.5116 5.66353L63.685 5.94833L63.8237 6.21324L63.9401 6.45886L63.9398 6.45899L63.9456 6.46989L64.1431 6.83853L64.1488 6.84914L64.1555 6.85915L64.3398 7.13563L64.3395 7.13585L64.3478 7.14696L64.5453 7.41027L64.552 7.41921L64.5595 7.42751L64.7964 7.69083L64.8031 7.69823L64.8103 7.70508L65.0605 7.94206L65.0605 7.94209L65.0639 7.94519L65.3667 8.22167Z" stroke="#DAD6D3" stroke-width="0.5"/>
<path d="M64.0331 0.403552C64.3204 0.433943 64.5882 0.629843 64.7782 0.972502C64.9677 1.31435 65.0657 1.78263 65.0116 2.29458C64.9574 2.80653 64.7636 3.24394 64.5067 3.53857C64.2493 3.8339 63.9464 3.96944 63.6591 3.93904C63.3718 3.90865 63.104 3.71275 62.9141 3.37009C62.7245 3.02825 62.6265 2.55997 62.6807 2.04801C62.7348 1.53606 62.9287 1.09866 63.1855 0.804024C63.443 0.508694 63.7458 0.373161 64.0331 0.403552Z" stroke="#DAD6D3" stroke-width="0.5"/>
<path d="M61.3553 2.04257C61.4095 2.55453 61.3115 3.02281 61.1219 3.36465C60.932 3.70731 60.6642 3.90321 60.3769 3.9336C60.0896 3.96399 59.7867 3.82846 59.5292 3.53313C59.2724 3.2385 59.0786 2.80109 59.0244 2.28914C58.9703 1.77719 59.0683 1.30891 59.2578 0.967063C59.4478 0.624404 59.7156 0.428505 60.0029 0.398114C60.2902 0.367723 60.593 0.503255 60.8505 0.798585C61.1073 1.09322 61.3012 1.53062 61.3553 2.04257Z" stroke="#DAD6D3" stroke-width="0.5"/>
<path d="M66.8654 3.5902C67.1481 3.65317 67.3921 3.87752 67.5422 4.23697C67.692 4.59569 67.7368 5.06857 67.6257 5.56716C67.5147 6.06575 67.2734 6.47492 66.9856 6.73617C66.6971 6.99795 66.381 7.09754 66.0983 7.03458C65.8156 6.97161 65.5716 6.74726 65.4215 6.38781C65.2717 6.0291 65.2269 5.55621 65.338 5.05762C65.449 4.55903 65.6903 4.14986 65.9781 3.88862C66.2666 3.62683 66.5827 3.52724 66.8654 3.5902Z" stroke="#DAD6D3" stroke-width="0.5"/>
<path d="M58.7004 5.05711C58.8115 5.55569 58.7667 6.02858 58.6169 6.38729C58.4668 6.74675 58.2228 6.9711 57.9401 7.03406C57.6574 7.09703 57.3413 6.99744 57.0528 6.73565C56.765 6.47441 56.5237 6.06523 56.4127 5.56665C56.3016 5.06806 56.3464 4.59517 56.4962 4.23646C56.6463 3.87701 56.8903 3.65265 57.173 3.58969C57.4557 3.52673 57.7718 3.62632 58.0603 3.8881C58.3481 4.14935 58.5894 4.55852 58.7004 5.05711Z" stroke="#DAD6D3" stroke-width="0.5"/>
<path d="M83.9436 8.22167L83.9436 8.22168L83.9449 8.22287L84.1924 8.44563L84.3639 8.66283L84.4913 8.89456L84.5373 9.00946L84.6124 9.20971L84.6438 9.31459L84.6797 9.5776L84.6916 9.73187V10.0081L84.6571 10.2607L84.5633 10.5655L84.4109 10.882L84.2388 11.1116L83.9903 11.36L83.763 11.5192L83.4335 11.6721L83.1878 11.7391L83.0441 11.7494L82.8539 11.7382L82.6331 11.6941L82.3937 11.5915L82.136 11.4442L81.8394 11.2507L81.8274 11.2429L81.8146 11.2365L81.446 11.0522L81.446 11.0522L81.442 11.0503L81.1392 10.9055L81.1126 10.8927L81.0837 10.8865L80.8994 10.847L80.8995 10.8467L80.886 10.8446L80.6359 10.8051L80.6087 10.8008L80.5813 10.8025L80.3706 10.8157L80.3458 10.8172L80.3218 10.8236L80.1243 10.8763L80.1035 10.8818L80.084 10.8908L79.9151 10.9688L79.7067 11.0599L79.6921 11.0664L79.6783 11.0746L79.4818 11.1925L79.2615 11.3221L79.0272 11.4523L79.0123 11.4605L78.9987 11.4708L78.9135 11.5346L78.7111 11.6305L78.361 11.7096L77.9969 11.6982L77.7697 11.6441L77.4413 11.4916L77.1619 11.3054L76.9534 11.0969L76.7939 10.8917L76.6423 10.5887L76.5359 10.2576L76.5028 10.0369L76.5148 9.67899L76.5638 9.34776L76.647 8.99146L76.783 8.71936L76.9504 8.485L77.0047 8.43976L77.0049 8.44L77.0142 8.4314L77.87 7.64146L77.8847 7.62791L77.897 7.61221L78.1867 7.24357L78.1867 7.24361L78.1901 7.23912L78.4271 6.92314L78.4396 6.9064L78.4492 6.8878L78.6599 6.47966L78.6599 6.4797L78.6626 6.47423L78.883 6.02043L79.0465 5.73115L79.1992 5.49631L79.4409 5.2546L79.817 4.99601L80.1957 4.8583L80.4551 4.82446H80.7386L80.9999 4.85853L81.2685 4.95198L81.4713 5.04213L81.6365 5.16326L81.7672 5.28207L81.8959 5.4108L82.0885 5.66353L82.2619 5.94833L82.4006 6.21324L82.517 6.45886L82.5167 6.45899L82.5225 6.46989L82.72 6.83853L82.7257 6.84914L82.7324 6.85915L82.9167 7.13563L82.9164 7.13585L82.9247 7.14696L83.1222 7.41027L83.1289 7.41921L83.1364 7.42751L83.3734 7.69083L83.38 7.69823L83.3872 7.70508L83.6374 7.94206L83.6374 7.94209L83.6408 7.94519L83.9436 8.22167Z" stroke="#DAD6D3" stroke-width="0.5"/>
<path d="M82.61 0.403552C82.8973 0.433943 83.1651 0.629843 83.3551 0.972502C83.5446 1.31435 83.6426 1.78263 83.5885 2.29458C83.5343 2.80653 83.3405 3.24394 83.0837 3.53857C82.8262 3.8339 82.5233 3.96944 82.236 3.93904C81.9487 3.90865 81.6809 3.71275 81.491 3.37009C81.3014 3.02825 81.2034 2.55997 81.2576 2.04801C81.3117 1.53606 81.5056 1.09866 81.7624 0.804024C82.0199 0.508694 82.3227 0.373161 82.61 0.403552Z" stroke="#DAD6D3" stroke-width="0.5"/>
<path d="M79.9322 2.04257C79.9864 2.55453 79.8884 3.02281 79.6988 3.36465C79.5089 3.70731 79.2411 3.90321 78.9538 3.9336C78.6665 3.96399 78.3636 3.82846 78.1062 3.53313C77.8493 3.2385 77.6555 2.80109 77.6013 2.28914C77.5472 1.77719 77.6452 1.30891 77.8347 0.967063C78.0247 0.624404 78.2925 0.428505 78.5798 0.398114C78.8671 0.367723 79.1699 0.503255 79.4274 0.798585C79.6842 1.09322 79.8781 1.53062 79.9322 2.04257Z" stroke="#DAD6D3" stroke-width="0.5"/>
<path d="M85.4423 3.5902C85.725 3.65317 85.969 3.87752 86.1191 4.23697C86.2689 4.59569 86.3137 5.06857 86.2026 5.56716C86.0916 6.06575 85.8503 6.47492 85.5625 6.73617C85.274 6.99795 84.9579 7.09754 84.6752 7.03458C84.3925 6.97161 84.1485 6.74726 83.9984 6.38781C83.8486 6.0291 83.8038 5.55621 83.9149 5.05762C84.0259 4.55903 84.2672 4.14986 84.555 3.88862C84.8435 3.62683 85.1596 3.52724 85.4423 3.5902Z" stroke="#DAD6D3" stroke-width="0.5"/>
<path d="M77.2773 5.05711C77.3884 5.55569 77.3436 6.02858 77.1938 6.38729C77.0437 6.74675 76.7997 6.9711 76.517 7.03406C76.2343 7.09703 75.9182 6.99744 75.6297 6.73565C75.3419 6.47441 75.1006 6.06523 74.9896 5.56665C74.8785 5.06806 74.9233 4.59517 75.0731 4.23646C75.2232 3.87701 75.4672 3.65265 75.7499 3.58969C76.0326 3.52673 76.3487 3.62632 76.6372 3.8881C76.925 4.14935 77.1663 4.55852 77.2773 5.05711Z" stroke="#DAD6D3" stroke-width="0.5"/>
</svg>
