<svg width="87" height="12" viewBox="0 0 87 12" fill="none" xmlns="http://www.w3.org/2000/svg">
<path d="M10.5814 9.26158L10.5419 9.12993L10.4629 8.91928L10.4103 8.78762L10.2654 8.5243L10.068 8.27415L9.80464 8.03717L9.50183 7.76069L9.25168 7.52371L9.0147 7.26039L8.81721 6.99708L8.63289 6.7206L8.43541 6.35196L8.31692 6.10181L8.17209 5.82533L7.98777 5.52252L7.77712 5.24604L7.6323 5.10121L7.48747 4.96956L7.28999 4.82473L7.053 4.71941L6.75019 4.61408L6.44738 4.57458H6.1314L5.82859 4.61408L5.39412 4.77207L4.97282 5.06172L4.69634 5.3382L4.52518 5.60151L4.35403 5.90432L4.13021 6.36512L3.91956 6.77326L3.68258 7.08924L3.39293 7.45788L2.53716 8.24782L2.45817 8.31365L2.26068 8.59013L2.10269 8.90611L2.01053 9.30108L1.95787 9.65656L1.9447 10.0515L1.9842 10.3148L2.10269 10.6835L2.27385 11.0258L2.45817 11.2628L2.69515 11.4998L3.01113 11.7104L3.37977 11.8816L3.65625 11.9474L4.07755 11.9606L4.48569 11.8684L4.73584 11.7499L4.84116 11.6709L5.07815 11.5393L5.30196 11.4076L5.49945 11.2891L5.7101 11.1969L5.88126 11.118L6.07874 11.0653L6.28939 11.0521L6.53954 11.0916L6.72386 11.1311L7.02667 11.2759L7.39531 11.4603L7.69813 11.6577L7.97461 11.8157L8.25109 11.9342L8.5144 11.9869L8.73822 12.0001L8.92254 11.9869L9.21218 11.9079L9.58082 11.7367L9.84414 11.5524L10.1206 11.2759L10.3181 11.0126L10.4893 10.6572L10.5946 10.3148L10.6341 10.0252V9.72239L10.6209 9.55123L10.5814 9.26158Z" fill="#B5B0AD"/>
<path d="M9.52949 2.32088C9.64729 1.20727 9.10968 0.23754 8.32871 0.154927C7.54773 0.0723141 6.81913 0.908103 6.70133 2.02171C6.58353 3.13533 7.12114 4.10506 7.90212 4.18767C8.68309 4.27028 9.41169 3.43449 9.52949 2.32088Z" fill="#B5B0AD"/>
<path d="M4.67245 4.18235C5.45343 4.09974 5.99104 3.13001 5.87324 2.0164C5.75544 0.902787 5.02684 0.0669979 4.24586 0.149611C3.46489 0.232223 2.92728 1.20195 3.04508 2.31556C3.16288 3.42917 3.89148 4.26496 4.67245 4.18235Z" fill="#B5B0AD"/>
<path d="M12.139 5.62151C12.3809 4.5356 11.9556 3.5169 11.189 3.34618C10.4225 3.17546 9.60507 3.91736 9.36321 5.00327C9.12136 6.08918 9.54668 7.10788 10.3132 7.2786C11.0797 7.44933 11.8972 6.70742 12.139 5.62151Z" fill="#B5B0AD"/>
<path d="M2.26376 7.27821C3.03028 7.10749 3.45561 6.08879 3.21375 5.00288C2.97189 3.91697 2.15444 3.17506 1.38792 3.34579C0.621391 3.51651 0.196064 4.53521 0.437921 5.62112C0.679778 6.70703 1.49723 7.44893 2.26376 7.27821Z" fill="#B5B0AD"/>
<path d="M29.1583 9.26158L29.1188 9.12993L29.0398 8.91928L28.9872 8.78762L28.8423 8.5243L28.6449 8.27415L28.3815 8.03717L28.0787 7.76069L27.8286 7.52371L27.5916 7.26039L27.3941 6.99708L27.2098 6.7206L27.0123 6.35196L26.8938 6.10181L26.749 5.82533L26.5647 5.52252L26.354 5.24604L26.2092 5.10121L26.0644 4.96956L25.8669 4.82473L25.6299 4.71941L25.3271 4.61408L25.0243 4.57458H24.7083L24.4055 4.61408L23.971 4.77207L23.5497 5.06172L23.2732 5.3382L23.1021 5.60151L22.9309 5.90432L22.7071 6.36512L22.4965 6.77326L22.2595 7.08924L21.9698 7.45788L21.1141 8.24782L21.0351 8.31365L20.8376 8.59013L20.6796 8.90611L20.5874 9.30108L20.5348 9.65656L20.5216 10.0515L20.5611 10.3148L20.6796 10.6835L20.8507 11.0258L21.0351 11.2628L21.2721 11.4998L21.588 11.7104L21.9567 11.8816L22.2332 11.9474L22.6545 11.9606L23.0626 11.8684L23.3127 11.7499L23.4181 11.6709L23.655 11.5393L23.8789 11.4076L24.0764 11.2891L24.287 11.1969L24.4582 11.118L24.6556 11.0653L24.8663 11.0521L25.1164 11.0916L25.3008 11.1311L25.6036 11.2759L25.9722 11.4603L26.275 11.6577L26.5515 11.8157L26.828 11.9342L27.0913 11.9869L27.3151 12.0001L27.4994 11.9869L27.7891 11.9079L28.1577 11.7367L28.421 11.5524L28.6975 11.2759L28.895 11.0126L29.0662 10.6572L29.1715 10.3148L29.211 10.0252V9.72239L29.1978 9.55123L29.1583 9.26158Z" fill="#B5B0AD"/>
<path d="M28.1064 2.32088C28.2242 1.20727 27.6866 0.23754 26.9056 0.154927C26.1246 0.0723141 25.396 0.908103 25.2782 2.02171C25.1604 3.13533 25.698 4.10506 26.479 4.18767C27.26 4.27028 27.9886 3.43449 28.1064 2.32088Z" fill="#B5B0AD"/>
<path d="M23.2494 4.18235C24.0303 4.09974 24.5679 3.13001 24.4501 2.0164C24.3323 0.902787 23.6037 0.0669979 22.8228 0.149611C22.0418 0.232223 21.5042 1.20195 21.622 2.31556C21.7398 3.42917 22.4684 4.26496 23.2494 4.18235Z" fill="#B5B0AD"/>
<path d="M30.7159 5.62151C30.9578 4.5356 30.5325 3.5169 29.766 3.34618C28.9994 3.17546 28.182 3.91736 27.9401 5.00327C27.6983 6.08918 28.1236 7.10788 28.8901 7.2786C29.6566 7.44933 30.4741 6.70742 30.7159 5.62151Z" fill="#B5B0AD"/>
<path d="M20.8407 7.27821C21.6072 7.10749 22.0325 6.08879 21.7907 5.00288C21.5488 3.91697 20.7313 3.17506 19.9648 3.34579C19.1983 3.51651 18.773 4.53521 19.0148 5.62112C19.2567 6.70703 20.0741 7.44893 20.8407 7.27821Z" fill="#B5B0AD"/>
<path d="M47.7352 9.26158L47.6957 9.12993L47.6167 8.91928L47.5641 8.78762L47.4193 8.5243L47.2218 8.27415L46.9585 8.03717L46.6556 7.76069L46.4055 7.52371L46.1685 7.26039L45.971 6.99708L45.7867 6.7206L45.5892 6.35196L45.4707 6.10181L45.3259 5.82533L45.1416 5.52252L44.9309 5.24604L44.7861 5.10121L44.6413 4.96956L44.4438 4.82473L44.2068 4.71941L43.904 4.61408L43.6012 4.57458H43.2852L42.9824 4.61408L42.5479 4.77207L42.1266 5.06172L41.8501 5.3382L41.679 5.60151L41.5078 5.90432L41.284 6.36512L41.0734 6.77326L40.8364 7.08924L40.5467 7.45788L39.691 8.24782L39.612 8.31365L39.4145 8.59013L39.2565 8.90611L39.1643 9.30108L39.1117 9.65656L39.0985 10.0515L39.138 10.3148L39.2565 10.6835L39.4277 11.0258L39.612 11.2628L39.849 11.4998L40.1649 11.7104L40.5336 11.8816L40.8101 11.9474L41.2314 11.9606L41.6395 11.8684L41.8896 11.7499L41.995 11.6709L42.232 11.5393L42.4558 11.4076L42.6533 11.2891L42.8639 11.1969L43.0351 11.118L43.2325 11.0653L43.4432 11.0521L43.6934 11.0916L43.8777 11.1311L44.1805 11.2759L44.5491 11.4603L44.8519 11.6577L45.1284 11.8157L45.4049 11.9342L45.6682 11.9869L45.892 12.0001L46.0763 11.9869L46.366 11.9079L46.7346 11.7367L46.9979 11.5524L47.2744 11.2759L47.4719 11.0126L47.6431 10.6572L47.7484 10.3148L47.7879 10.0252V9.72239L47.7747 9.55123L47.7352 9.26158Z" fill="#B5B0AD"/>
<path d="M46.6833 2.32088C46.8011 1.20727 46.2635 0.23754 45.4825 0.154927C44.7015 0.0723141 43.9729 0.908103 43.8551 2.02171C43.7373 3.13533 44.275 4.10506 45.0559 4.18767C45.8369 4.27028 46.5655 3.43449 46.6833 2.32088Z" fill="#B5B0AD"/>
<path d="M41.8263 4.18235C42.6072 4.09974 43.1448 3.13001 43.027 2.0164C42.9092 0.902787 42.1806 0.0669979 41.3997 0.149611C40.6187 0.232223 40.0811 1.20195 40.1989 2.31556C40.3167 3.42917 41.0453 4.26496 41.8263 4.18235Z" fill="#B5B0AD"/>
<path d="M49.2929 5.62151C49.5347 4.5356 49.1094 3.5169 48.3429 3.34618C47.5763 3.17546 46.7589 3.91736 46.517 5.00327C46.2752 6.08918 46.7005 7.10788 47.467 7.2786C48.2335 7.44933 49.051 6.70742 49.2929 5.62151Z" fill="#B5B0AD"/>
<path d="M39.4176 7.27821C40.1841 7.10749 40.6094 6.08879 40.3676 5.00288C40.1257 3.91697 39.3082 3.17506 38.5417 3.34579C37.7752 3.51651 37.3499 4.53521 37.5917 5.62112C37.8336 6.70703 38.651 7.44893 39.4176 7.27821Z" fill="#B5B0AD"/>
<path d="M65.3668 8.22179L65.3668 8.2218L65.3681 8.223L65.6156 8.44575L65.7871 8.66295L65.9145 8.89468L65.9605 9.00958L66.0356 9.20983L66.0671 9.31472L66.1029 9.57773L66.1148 9.73199V10.0082L66.0803 10.2608L65.9866 10.5657L65.8342 10.8822L65.662 11.1117L65.4136 11.3602L65.1862 11.5193L64.8568 11.6723L64.6111 11.7393L64.4674 11.7495L64.2771 11.7383L64.0564 11.6942L63.8169 11.5916L63.5592 11.4443L63.2626 11.2509L63.2506 11.243L63.2378 11.2367L62.8692 11.0523L62.8692 11.0523L62.8652 11.0504L62.5624 10.9056L62.5358 10.8929L62.507 10.8867L62.3226 10.8472L62.3227 10.8468L62.3092 10.8447L62.0591 10.8052L62.0319 10.8009L62.0045 10.8026L61.7939 10.8158L61.7691 10.8173L61.745 10.8237L61.5476 10.8764L61.5268 10.8819L61.5072 10.891L61.3383 10.9689L61.13 11.0601L61.1153 11.0665L61.1015 11.0747L60.905 11.1926L60.6847 11.3222L60.4505 11.4524L60.4355 11.4607L60.4219 11.4709L60.3367 11.5348L60.1344 11.6306L59.7843 11.7097L59.4202 11.6983L59.1929 11.6442L58.8645 11.4917L58.5851 11.3055L58.3767 11.097L58.2171 10.8918L58.0656 10.5888L57.9591 10.2577L57.926 10.037L57.938 9.67911L57.987 9.34788L58.0702 8.99158L58.2062 8.71948L58.3736 8.48513L58.4279 8.43988L58.4281 8.44013L58.4374 8.43152L59.2932 7.64158L59.3079 7.62804L59.3202 7.61234L59.6099 7.2437L59.6099 7.24373L59.6133 7.23924L59.8503 6.92326L59.8628 6.90652L59.8724 6.88792L60.0831 6.47979L60.0831 6.47982L60.0858 6.47435L60.3062 6.02056L60.4697 5.73127L60.6224 5.49643L60.8641 5.25472L61.2402 4.99613L61.6189 4.85843L61.8784 4.82458H62.1619L62.4231 4.85866L62.6917 4.9521L62.8946 5.04225L63.0597 5.16339L63.1904 5.2822L63.3192 5.41092L63.5117 5.66365L63.6851 5.94845L63.8238 6.21336L63.9402 6.45898L63.9399 6.45911L63.9457 6.47001L64.1432 6.83865L64.1489 6.84926L64.1556 6.85927L64.3399 7.13575L64.3396 7.13597L64.3479 7.14708L64.5454 7.41039L64.5521 7.41933L64.5596 7.42764L64.7966 7.69095L64.8032 7.69835L64.8105 7.7052L65.0606 7.94218L65.0606 7.94221L65.064 7.94531L65.3668 8.22179Z" stroke="#DAD6D3" stroke-width="0.5"/>
<path d="M64.0331 0.403552C64.3204 0.433943 64.5882 0.629843 64.7782 0.972502C64.9677 1.31435 65.0657 1.78263 65.0116 2.29458C64.9574 2.80653 64.7636 3.24394 64.5067 3.53857C64.2493 3.8339 63.9464 3.96944 63.6591 3.93904C63.3718 3.90865 63.104 3.71275 62.9141 3.37009C62.7245 3.02825 62.6265 2.55997 62.6807 2.04801C62.7348 1.53606 62.9287 1.09866 63.1855 0.804024C63.443 0.508694 63.7458 0.373161 64.0331 0.403552Z" stroke="#DAD6D3" stroke-width="0.5"/>
<path d="M61.3553 2.0427C61.4095 2.55465 61.3115 3.02293 61.1219 3.36478C60.932 3.70744 60.6642 3.90334 60.3769 3.93373C60.0896 3.96412 59.7867 3.82858 59.5292 3.53325C59.2724 3.23862 59.0786 2.80122 59.0244 2.28926C58.9703 1.77731 59.0683 1.30903 59.2578 0.967185C59.4478 0.624526 59.7156 0.428627 60.0029 0.398236C60.2902 0.367845 60.593 0.503377 60.8505 0.798707C61.1073 1.09334 61.3012 1.53075 61.3553 2.0427Z" stroke="#DAD6D3" stroke-width="0.5"/>
<path d="M66.8654 3.5902C67.1481 3.65317 67.3921 3.87752 67.5422 4.23697C67.692 4.59569 67.7368 5.06857 67.6257 5.56716C67.5147 6.06575 67.2734 6.47492 66.9856 6.73617C66.6971 6.99795 66.381 7.09754 66.0983 7.03458C65.8156 6.97161 65.5716 6.74726 65.4215 6.38781C65.2717 6.0291 65.2269 5.55621 65.338 5.05762C65.449 4.55903 65.6903 4.14986 65.9781 3.88862C66.2666 3.62683 66.5827 3.52724 66.8654 3.5902Z" stroke="#DAD6D3" stroke-width="0.5"/>
<path d="M58.7004 5.05723C58.8115 5.55582 58.7667 6.0287 58.6169 6.38742C58.4668 6.74687 58.2228 6.97122 57.9401 7.03418C57.6574 7.09715 57.3413 6.99756 57.0528 6.73577C56.765 6.47453 56.5237 6.06536 56.4127 5.56677C56.3016 5.06818 56.3464 4.59529 56.4962 4.23658C56.6463 3.87713 56.8903 3.65278 57.173 3.58981C57.4557 3.52685 57.7718 3.62644 58.0603 3.88822C58.3481 4.14947 58.5894 4.55864 58.7004 5.05723Z" stroke="#DAD6D3" stroke-width="0.5"/>
<path d="M83.9437 8.22179L83.9437 8.2218L83.945 8.223L84.1925 8.44575L84.364 8.66295L84.4914 8.89468L84.5374 9.00958L84.6125 9.20983L84.644 9.31472L84.6798 9.57773L84.6917 9.73199V10.0082L84.6573 10.2608L84.5635 10.5657L84.4111 10.8822L84.2389 11.1117L83.9905 11.3602L83.7632 11.5193L83.4337 11.6723L83.188 11.7393L83.0443 11.7495L82.854 11.7383L82.6333 11.6942L82.3938 11.5916L82.1362 11.4443L81.8395 11.2509L81.8275 11.243L81.8147 11.2367L81.4461 11.0523L81.4461 11.0523L81.4422 11.0504L81.1393 10.9056L81.1127 10.8929L81.0839 10.8867L80.8995 10.8472L80.8996 10.8468L80.8861 10.8447L80.636 10.8052L80.6088 10.8009L80.5814 10.8026L80.3708 10.8158L80.346 10.8173L80.3219 10.8237L80.1245 10.8764L80.1037 10.8819L80.0841 10.891L79.9152 10.9689L79.7069 11.0601L79.6922 11.0665L79.6784 11.0747L79.4819 11.1926L79.2616 11.3222L79.0274 11.4524L79.0124 11.4607L78.9988 11.4709L78.9136 11.5348L78.7113 11.6306L78.3612 11.7097L77.9971 11.6983L77.7698 11.6442L77.4414 11.4917L77.162 11.3055L76.9536 11.097L76.794 10.8918L76.6425 10.5888L76.536 10.2577L76.5029 10.037L76.5149 9.67911L76.5639 9.34788L76.6471 8.99158L76.7831 8.71948L76.9505 8.48513L77.0048 8.43988L77.005 8.44013L77.0143 8.43152L77.8701 7.64158L77.8848 7.62804L77.8971 7.61234L78.1868 7.2437L78.1868 7.24373L78.1902 7.23924L78.4272 6.92326L78.4397 6.90652L78.4493 6.88792L78.66 6.47979L78.6601 6.47982L78.6627 6.47435L78.8831 6.02056L79.0466 5.73127L79.1993 5.49643L79.441 5.25472L79.8171 4.99613L80.1958 4.85843L80.4553 4.82458H80.7388L81 4.85866L81.2686 4.9521L81.4715 5.04225L81.6367 5.16339L81.7673 5.2822L81.8961 5.41092L82.0886 5.66365L82.262 5.94845L82.4007 6.21336L82.5171 6.45898L82.5168 6.45911L82.5227 6.47001L82.7201 6.83865L82.7258 6.84926L82.7325 6.85927L82.9168 7.13575L82.9165 7.13597L82.9248 7.14708L83.1223 7.41039L83.129 7.41933L83.1365 7.42764L83.3735 7.69095L83.3801 7.69835L83.3874 7.7052L83.6375 7.94218L83.6375 7.94221L83.6409 7.94531L83.9437 8.22179Z" stroke="#DAD6D3" stroke-width="0.5"/>
<path d="M82.61 0.403552C82.8973 0.433943 83.1651 0.629843 83.3551 0.972502C83.5446 1.31435 83.6426 1.78263 83.5885 2.29458C83.5343 2.80653 83.3405 3.24394 83.0837 3.53857C82.8262 3.8339 82.5233 3.96944 82.236 3.93904C81.9487 3.90865 81.6809 3.71275 81.491 3.37009C81.3014 3.02825 81.2034 2.55997 81.2576 2.04801C81.3117 1.53606 81.5056 1.09866 81.7624 0.804024C82.0199 0.508694 82.3227 0.373161 82.61 0.403552Z" stroke="#DAD6D3" stroke-width="0.5"/>
<path d="M79.9322 2.0427C79.9864 2.55465 79.8884 3.02293 79.6988 3.36478C79.5089 3.70744 79.2411 3.90334 78.9538 3.93373C78.6665 3.96412 78.3636 3.82858 78.1062 3.53325C77.8493 3.23862 77.6555 2.80122 77.6013 2.28926C77.5472 1.77731 77.6452 1.30903 77.8347 0.967185C78.0247 0.624526 78.2925 0.428627 78.5798 0.398236C78.8671 0.367845 79.1699 0.503377 79.4274 0.798707C79.6842 1.09334 79.8781 1.53075 79.9322 2.0427Z" stroke="#DAD6D3" stroke-width="0.5"/>
<path d="M85.4423 3.5902C85.725 3.65317 85.969 3.87752 86.1191 4.23697C86.2689 4.59569 86.3137 5.06857 86.2026 5.56716C86.0916 6.06575 85.8503 6.47492 85.5625 6.73617C85.274 6.99795 84.9579 7.09754 84.6752 7.03458C84.3925 6.97161 84.1485 6.74726 83.9984 6.38781C83.8486 6.0291 83.8038 5.55621 83.9149 5.05762C84.0259 4.55903 84.2672 4.14986 84.555 3.88862C84.8435 3.62683 85.1596 3.52724 85.4423 3.5902Z" stroke="#DAD6D3" stroke-width="0.5"/>
<path d="M77.2773 5.05723C77.3884 5.55582 77.3436 6.0287 77.1938 6.38742C77.0437 6.74687 76.7997 6.97122 76.517 7.03418C76.2343 7.09715 75.9182 6.99756 75.6297 6.73577C75.3419 6.47453 75.1006 6.06536 74.9896 5.56677C74.8785 5.06818 74.9233 4.59529 75.0731 4.23658C75.2232 3.87713 75.4672 3.65278 75.7499 3.58981C76.0326 3.52685 76.3487 3.62644 76.6372 3.88822C76.925 4.14947 77.1663 4.55864 77.2773 5.05723Z" stroke="#DAD6D3" stroke-width="0.5"/>
</svg>
